<?xml version="1.0" encoding="UTF-8" standalone="no"?>
<!-- Created with Inkscape (http://www.inkscape.org/) -->

<svg
   width="4317.8823"
   height="1022.5012"
   viewBox="0 0 1142.4397 270.53678"
   version="1.1"
   id="svg1169"
   inkscape:version="1.2.1 (9c6d41e410, 2022-07-14)"
   sodipodi:docname="picsur_dark.svg"
   xmlns:inkscape="http://www.inkscape.org/namespaces/inkscape"
   xmlns:sodipodi="http://sodipodi.sourceforge.net/DTD/sodipodi-0.dtd"
   xmlns="http://www.w3.org/2000/svg"
   xmlns:svg="http://www.w3.org/2000/svg">
  <sodipodi:namedview
     id="namedview1171"
     pagecolor="#ffffff"
     bordercolor="#666666"
     borderopacity="1.0"
     inkscape:showpageshadow="2"
     inkscape:pageopacity="0.0"
     inkscape:pagecheckerboard="0"
     inkscape:deskcolor="#d1d1d1"
     inkscape:document-units="px"
     showgrid="false"
     inkscape:zoom="0.16826232"
     inkscape:cx="2213.8052"
     inkscape:cy="1194.5633"
     inkscape:window-width="1920"
     inkscape:window-height="1043"
     inkscape:window-x="0"
     inkscape:window-y="0"
     inkscape:window-maximized="1"
     inkscape:current-layer="text306" />
  <defs
     id="defs1166">
    <inkscape:path-effect
       effect="offset"
       id="path-effect521"
       is_visible="true"
       lpeversion="1.2"
       linejoin_type="extrp_arc"
       unit="px"
       offset="-26.151514"
       miter_limit="4"
       attempt_force_join="false"
       update_on_knot_move="true" />
  </defs>
  <g
     inkscape:label="Layer 1"
     inkscape:groupmode="layer"
     id="layer1"
     transform="translate(3.9871567e-5)">
    <g
       aria-label="Picsur"
       id="text306"
       style="font-size:198.438px;line-height:1.25;font-family:OMEGLE;-inkscape-font-specification:OMEGLE;stroke-width:0.264583;fill:#121212;fill-opacity:1"
       transform="matrix(1.8630096,0,0,1.8630096,1576.3936,845.92287)">
      <path
         d="m -822.39258,-454.0625 h 33.58203 c 14.59591,0 26.93699,5.06155 37.22657,15.25586 l 0.0117,0.0117 0.0117,0.0117 c 10.29184,10.00857 15.51369,22.40586 15.51367,36.87304 0,14.47726 -5.18301,26.99746 -15.39843,37.21289 -10.21543,10.21543 -22.73564,15.39844 -37.21289,15.39844 l -12.26172,-0.21875 v 16.29688 c 0,7.11621 -2.09562,12.93765 -6.11133,17.56445 -3.8839,4.47493 -9.05602,6.80859 -15.36133,6.80859 -6.52832,0 -12.2734,-2.37792 -16.88867,-6.98242 -4.58392,-4.7742 -6.87305,-10.50979 -6.87305,-17.39062 v -96.47071 c 0,-6.89519 2.29025,-12.57125 6.87305,-17.24218 4.62637,-4.71366 10.3704,-7.12891 16.88867,-7.12891 z m 21.47266,35.46289 V -385 l 11.95703,-0.2207 h 0.01 c 4.66268,-0.002 8.46805,-1.59697 11.77539,-4.9043 3.30972,-3.30972 4.90429,-7.11782 4.90429,-11.78516 0,-4.66732 -1.59456,-8.47543 -4.90429,-11.78515 -3.30973,-3.30973 -7.11783,-4.9043 -11.78516,-4.9043 z"
         style="font-family:Franks;-inkscape-font-specification:'Franks, Normal';fill:#121212;fill-opacity:1"
         id="path412" />
      <path
         d="m -602.43164,-423.5332 c 7.90765,0 15.50677,1.62397 22.75195,4.86523 l 0.0195,0.008 0.0195,0.008 c 7.18496,3.11978 13.44298,7.52423 18.74609,13.16015 l 0.45703,0.68555 c 0.0183,0.0254 0.0365,0.0507 0.0547,0.0762 2.44111,3.28289 3.69336,7.08936 3.69336,11.36914 0,5.81084 -2.25923,10.26459 -6.70117,13.47266 l -0.0137,0.01 -0.0117,0.01 c -2.79835,2.05762 -5.9575,3.09375 -9.40234,3.09375 -2.46804,0 -4.77534,-0.4631 -6.94922,-1.38281 -2.10559,-0.89083 -4.19486,-2.35576 -6.24414,-4.49414 -0.0196,-0.0202 -0.0391,-0.0403 -0.0586,-0.0606 -0.0228,-0.0215 -0.0455,-0.043 -0.0684,-0.0644 -4.55814,-4.31824 -10.03763,-6.51368 -16.29297,-6.51368 -0.88815,0 -2.26244,0.13403 -3.73047,0.34375 l -0.0488,0.006 -0.0488,0.008 c -5.66497,0.96424 -10.32297,3.64426 -13.87109,8.04882 -3.49651,4.34051 -5.24805,9.28711 -5.24805,14.84571 0,0.88815 0.13401,2.26415 0.34375,3.73242 l 0.008,0.0547 c 0.003,0.0189 0.006,0.0378 0.01,0.0566 0.96418,5.54397 3.56192,10.14654 7.80469,13.7832 0.015,0.0124 0.0299,0.0248 0.0449,0.0371 0.0143,0.0117 0.0286,0.0235 0.043,0.0352 4.3398,3.49593 9.28594,5.25 14.8457,5.25 1.04931,0 2.38804,-0.13188 3.88477,-0.34571 l 0.0781,-0.01 c 0.0267,-0.005 0.0534,-0.0104 0.0801,-0.0156 3.85427,-0.72267 7.30143,-2.29115 10.33594,-4.71875 l 0.01,-0.008 0.006,-0.006 c 3.60569,-2.91889 7.66581,-4.36133 12.16602,-4.36133 3.50462,0 6.71051,0.97843 9.50586,2.86524 4.47246,3.09763 6.77539,7.55149 6.77539,13.57031 0,3.9535 -1.1931,7.70972 -3.60156,11.15039 -0.0497,0.0713 -0.0999,0.14222 -0.15039,0.21289 l -0.38477,0.76563 c -8.33492,7.53405 -17.90368,12.30031 -28.80078,14.27929 -3.46965,0.57732 -6.82136,0.86328 -10.05664,0.86328 -13.7575,0 -25.98801,-4.38929 -36.70313,-13.18554 l -0.004,-0.004 c -10.69034,-8.87839 -17.28145,-20.2334 -19.77344,-34.10351 -0.57664,-3.46752 -0.86328,-6.81738 -0.86328,-10.05079 0,-13.75414 4.43792,-25.98252 13.33984,-36.70312 8.88144,-10.69592 20.18565,-17.28349 33.94727,-19.77539 3.46965,-0.57732 6.82137,-0.86328 10.05664,-0.86328 z"
         style="font-family:Franks;-inkscape-font-specification:'Franks, Normal';fill:#121212;fill-opacity:1"
         id="path416" />
      <path
         d="m -489.16992,-425.97656 c 6.58541,0 12.26922,0.63936 17.09375,1.86914 l 0.01,0.002 0.008,0.002 c 4.87363,1.21841 10.33626,3.54523 16.4375,7.0879 l 0.14257,0.084 c 0.047,0.022 0.0938,0.0441 0.14063,0.0664 2.91057,1.36967 5.36074,3.34356 7.33594,5.91992 l 0.0195,0.0254 c 0.006,0.008 0.0117,0.0156 0.0176,0.0234 1.81712,2.29115 2.70507,4.83881 2.70507,7.61328 0,3.8695 -1.38253,7.31209 -4.32421,10.42187 -2.81858,2.97964 -6.30751,4.48633 -10.125,4.48633 -0.81046,0 -2.38951,-0.41763 -5.0293,-1.73438 -2.71227,-1.54887 -4.47981,-2.54361 -5.2168,-2.9121 -0.0202,-0.01 -0.0403,-0.0196 -0.0605,-0.0293 l -0.0527,-0.0254 c -2.68525,-1.23073 -5.61299,-2.21754 -8.76562,-2.97852 -2.9209,-0.70504 -4.91822,-1.16912 -6.01758,-1.39062 -0.001,-2.9e-4 -0.003,2.9e-4 -0.004,0 -1.10314,-0.24492 -2.20534,-0.39453 -3.24609,-0.39453 -3.93209,0 -7.6836,1.94883 -7.6836,6.46289 0,2.41402 1.05257,4.15807 2.81055,5.52539 1.40225,1.09064 3.224,1.88194 5.19922,2.46289 0.0247,0.007 0.0495,0.0144 0.0742,0.0215 l 1.14062,0.28711 c 3.55544,1.08737 6.89981,2.26533 10.03516,3.53906 l 0.0469,0.0176 0.0469,0.0195 c 3.17855,1.19195 5.50154,2.2196 7.13476,3.12696 0.0222,0.013 0.0443,0.026 0.0664,0.0391 l 0.0762,0.0371 c 1.79218,0.89609 3.08387,1.56724 3.93164,2.03711 3.03927,1.76602 5.07891,3.2019 6.33789,4.37695 0.0104,0.01 0.0208,0.0195 0.0312,0.0293 l 0.0352,0.0312 c 3.2809,2.91636 5.77596,6.28722 7.47852,10.05078 l 0.0156,0.0332 0.0156,0.0332 c 1.76125,3.69861 2.6914,8.0342 2.6914,13.05664 0,10.61249 -3.79769,19.44896 -11.16601,26.27148 -8.18528,7.5415 -19.55498,11.5332 -34.27149,11.5332 -5.66502,0 -10.6617,-0.29841 -15.04297,-0.88086 -4.26645,-0.66723 -8.61262,-1.85661 -13.03711,-3.58593 l -0.0195,-0.008 c -0.002,-7.7e-4 -0.004,-0.001 -0.006,-0.002 l -4.48046,-1.79297 c -1.19477,-0.51293 -2.21875,-1.09002 -3.08594,-1.7207 -0.0623,-0.045 -0.12411,-0.0906 -0.18555,-0.13672 -0.0712,-0.038 -0.14214,-0.0764 -0.21289,-0.11523 -2.65645,-1.45677 -4.8341,-3.38562 -6.52539,-5.74414 -1.59211,-2.31694 -2.38281,-4.8535 -2.38281,-7.48633 0,-4.11258 1.42989,-7.86796 4.41992,-11.28516 3.10884,-3.54063 6.737,-5.52552 10.85156,-6.10156 0.0156,-0.002 0.0312,-0.004 0.0469,-0.006 l 0.0488,-0.008 c 1.13362,-0.18893 1.84044,-0.25391 2.28907,-0.25391 3.61664,0 6.51734,0.89243 8.86133,2.5332 l 0.35156,0.2461 0.39844,0.16015 c 0,0 2.36351,1.28937 6.50781,3.71485 3.03464,1.79829 6.06717,2.96289 8.91406,2.96289 1.81639,0 3.64457,-0.25285 5.17187,-0.93164 2.75474,-1.22435 3.58008,-3.72471 3.58008,-6.14258 -3.9e-4,-0.043 -0.001,-0.0859 -0.002,-0.12891 -0.002,-0.0449 -0.005,-0.0899 -0.008,-0.13476 -0.19048,-2.66673 -1.54335,-4.8266 -3.96289,-6.06641 -1.46415,-0.79051 -4.02033,-1.6322 -7.20899,-2.45508 l -0.0469,-0.0117 -3.90039,-0.90234 c -5.2614,-1.46466 -9.8098,-3.24498 -13.68946,-5.32617 -0.002,-9.2e-4 -0.004,-0.001 -0.006,-0.002 -4.54987,-2.46647 -8.0077,-5.2316 -10.49023,-8.2461 -0.0379,-0.0461 -0.0757,-0.0923 -0.11328,-0.13867 -0.0425,-0.0422 -0.0848,-0.0845 -0.12695,-0.12695 -2.38107,-2.38107 -4.30141,-5.22862 -5.75,-8.5586 -1.3324,-3.39448 -2.01563,-7.03718 -2.01563,-10.94726 0,-10.41744 3.70422,-19.10937 10.87695,-25.82813 8.1664,-7.61586 19.73129,-11.67187 34.86524,-11.67187 z m -2.39453,74.21484 c 0.0107,0.006 0.0422,0.0118 0.0527,0.0176 l -0.11914,-0.0625 c 0.025,0.0125 0.0416,0.0322 0.0664,0.0449 z"
         style="font-family:Franks;-inkscape-font-specification:'Franks, Normal';fill:#121212;fill-opacity:1"
         id="path418" />
      <path
         d="m -412.84766,-423.5332 c 4.90288,0 9.28602,1.81725 12.79102,5.32226 3.49207,3.49206 5.32227,7.92037 5.32226,12.94336 v 51.7461 c 0,2.99919 0.92902,5.66729 2.81641,7.99023 0.0272,0.0333 0.0545,0.0665 0.082,0.0996 0.0285,0.0307 0.0572,0.0613 0.0859,0.0918 2.17717,2.33269 4.70932,3.4707 7.9043,3.4707 3.23521,0 5.72208,-1.29735 7.83398,-3.71094 2.02174,-2.31056 3.05664,-5.02861 3.05664,-8.09375 v -51.59375 c 0,-5.15434 1.72388,-9.41446 5.20117,-12.97656 3.3811,-3.46356 7.73677,-5.28906 12.75977,-5.28906 4.8768,0 9.17147,1.83937 12.57617,5.41015 0.01,0.0111 0.0195,0.0221 0.0293,0.0332 0.0104,0.0104 0.0208,0.0208 0.0312,0.0312 3.50501,3.50501 5.32226,7.88814 5.32226,12.79101 v 48.8457 c 0,13.06433 -4.55242,24.19689 -13.74414,33.57813 -9.10631,9.29408 -20.24303,13.99609 -33.0664,13.99609 -12.95555,0 -24.15145,-4.62606 -33.24414,-13.71875 -9.09269,-9.09269 -13.71875,-20.28859 -13.71875,-33.24414 v -49.45703 c 0,-5.15345 1.72537,-9.41399 5.20312,-12.97656 3.38159,-3.46407 7.73483,-5.28906 12.75781,-5.28906 z"
         style="font-family:Franks;-inkscape-font-specification:'Franks, Normal';fill:#121212;fill-opacity:1"
         id="path420" />
      <path
         d="m -302.94336,-423.5332 h 26.86524 c 11.55441,0 21.18573,3.94942 29.12304,11.88672 l 0.0156,0.0156 0.0156,0.0137 c 7.94804,7.76321 12.00781,17.46277 12.00781,28.78711 0,5.44021 -0.98153,10.50763 -2.92382,15.22461 l -0.0117,0.0293 -0.0117,0.0293 c -1.86158,4.74703 -4.56447,9.03566 -8.1211,12.87305 -0.62936,0.67992 -1.28008,1.33975 -1.95117,1.97852 l 12.78711,21.08008 c 1.49281,2.488 2.2168,5.09464 2.2168,7.85937 0,2.59947 -0.64447,5.02969 -1.95117,7.31641 -0.008,0.0143 -0.0169,0.0287 -0.0254,0.043 -0.008,0.015 -0.0156,0.03 -0.0234,0.0449 -1.18344,2.20906 -2.93042,4.01781 -5.32227,5.41992 -2.38854,1.40019 -4.904,2.08398 -7.58398,2.08398 -2.59788,0 -5.03113,-0.64614 -7.31836,-1.95312 -2.25634,-1.28935 -4.09574,-3.11463 -5.50781,-5.52344 l -0.0156,-0.0293 -15.60742,-25.46484 h -9.45898 v 13.63672 c 0,5.3171 -1.68092,9.73192 -4.99219,13.38281 -3.05126,3.37244 -7.18208,5.1875 -12.20508,5.1875 -5.01049,0 -9.42799,-1.8237 -12.91602,-5.29883 -3.4662,-3.65351 -5.19726,-8.01865 -5.19726,-13.27148 v -76.78125 c 0,-5.13128 1.75655,-9.44635 5.35156,-13.12695 3.51426,-3.59793 7.88492,-5.44336 12.76172,-5.44336 z m 17.19727,26.60937 v 28.28516 l 9.66797,-0.24805 c 3.79457,0 7.14194,-1.32943 9.80078,-3.98828 2.7253,-2.72529 4.14062,-6.11104 4.14062,-9.95508 0,-3.74434 -1.42216,-7.03631 -4.07422,-9.72265 -2.68286,-2.93509 -5.88653,-4.3711 -9.86718,-4.3711 z m 19.53515,4.3711 c 0.0194,0.0213 0.0412,0.0352 0.0605,0.0566 l -0.12695,-0.13477 c 0.0248,0.0248 0.0418,0.0532 0.0664,0.0781 z"
         style="font-family:Franks;-inkscape-font-specification:'Franks, Normal';fill:#121212;fill-opacity:1"
         id="path422" />
    </g>
    <g
       id="g2443"
       transform="matrix(1.018061,0,0,1.0173191,765.03069,366.53419)">
      <circle
         style="fill:#43a047;fill-opacity:1;stroke:none;stroke-width:24.4891;stroke-linecap:round;stroke-linejoin:round"
         id="path1293-6"
         cx="-481.25787"
         cy="-128.00815"
         r="33.645" />
      <path
         style="fill:none;stroke:#43a047;stroke-width:67.3211;stroke-linecap:round;stroke-linejoin:miter;stroke-miterlimit:4;stroke-dasharray:none;stroke-opacity:1"
         d="m -481.7404,-270.72549 v 61.86353"
         id="path5020"
         sodipodi:nodetypes="cc" />
    </g>
  </g>
</svg>
